<svg 
 xmlns="http://www.w3.org/2000/svg"
 xmlns:xlink="http://www.w3.org/1999/xlink"
 width="275px" height="81px">
<defs>
<linearGradient id="PSgrad_0" x1="17.365%" x2="0%" y1="98.481%" y2="0%">
  <stop offset="0%" stop-color="rgb(0,85,150)" stop-opacity="1" />
  <stop offset="100%" stop-color="rgb(0,85,150)" stop-opacity="0.70196" />
</linearGradient>

</defs>
<path fill-rule="evenodd"  fill="rgb(255, 255, 255)"
 d="M267.205,17.1000 C266.035,13.066 263.686,8.597 260.101,4.616 C267.375,7.547 271.946,12.011 273.829,17.1000 L267.205,17.1000 ZM255.228,17.1000 C254.464,15.573 253.267,13.400 251.605,11.501 C248.529,7.985 243.719,6.228 237.176,6.228 C233.562,6.228 230.926,6.789 229.266,7.912 C228.058,8.791 227.303,12.154 227.001,17.1000 L220.917,17.1000 L220.917,2.053 C222.136,2.053 223.089,2.029 223.773,1.979 C226.556,1.882 229.241,1.712 231.830,1.467 C233.538,1.272 235.418,1.174 237.469,1.174 C246.160,1.174 252.557,3.444 256.659,7.985 C259.212,10.877 260.957,14.217 261.902,17.1000 L255.228,17.1000 ZM209.353,17.1000 C209.073,13.609 208.362,10.343 207.220,8.205 C205.706,5.374 203.045,3.470 199.237,2.492 L199.237,1.174 C205.730,1.662 211.175,1.955 215.570,2.053 L215.570,17.1000 L209.353,17.1000 ZM146.988,17.1000 C147.227,17.042 147.381,16.056 147.381,15.017 C147.381,12.087 146.526,9.768 144.818,8.059 C143.157,6.399 140.960,5.568 138.226,5.568 C135.198,5.568 132.927,6.326 131.415,7.839 C129.900,9.353 129.144,10.915 129.144,12.526 C129.144,14.006 129.754,15.834 130.954,17.1000 L124.716,17.1000 C123.861,15.953 123.431,14.103 123.431,12.453 C123.431,9.036 124.847,6.130 127.679,3.737 C130.510,1.345 134.417,0.148 139.398,0.148 C144.280,0.148 148.358,1.419 151.629,3.957 C154.949,6.546 156.610,9.842 156.610,13.845 C156.610,15.258 156.343,16.639 155.907,17.1000 L146.988,17.1000 ZM116.293,17.1000 C116.573,15.993 117.183,13.996 118.158,12.014 C118.241,13.952 118.647,15.952 119.312,17.1000 L116.293,17.1000 ZM80.290,17.1000 C78.762,14.661 76.815,11.878 74.432,9.670 C78.113,12.092 81.183,14.874 83.668,17.1000 L80.290,17.1000 ZM66.712,17.1000 C66.129,17.136 65.506,16.312 64.837,15.529 C59.661,9.475 52.044,6.447 41.986,6.447 C36.760,6.447 32.635,7.253 29.608,8.864 C29.162,10.118 28.844,13.168 28.652,17.1000 L22.357,17.1000 L22.357,2.053 C29.095,1.906 33.807,1.736 36.493,1.540 C40.545,1.296 43.328,1.174 44.842,1.174 C52.167,1.174 58.416,2.858 63.592,6.228 C68.202,9.301 71.775,13.230 74.333,17.1000 L66.712,17.1000 ZM10.962,17.1000 C10.699,13.770 9.982,10.551 8.807,8.352 C7.293,5.568 4.632,3.616 0.824,2.492 L0.824,1.174 C7.171,1.662 12.616,1.955 17.157,2.053 L17.157,17.1000 L10.962,17.1000 ZM11.078,52.150 L11.078,31.1000 L17.157,31.1000 L17.157,79.250 C13.689,79.250 8.245,79.543 0.824,80.129 L0.824,78.811 C4.583,77.785 7.244,75.588 8.807,72.219 C10.320,68.996 11.078,62.307 11.078,52.150 ZM28.436,31.1000 L28.436,49.807 C28.436,60.500 29.143,68.313 30.560,73.244 C34.319,74.416 38.617,75.002 43.451,75.002 C52.484,75.002 59.588,72.146 64.764,66.433 C69.988,60.672 72.601,52.200 72.601,41.018 C72.601,37.798 72.371,34.796 71.922,31.1000 L78.490,31.1000 C78.806,34.582 78.973,37.338 78.973,40.285 C78.973,52.981 75.921,62.796 69.818,69.729 C63.666,76.662 55.340,80.129 44.842,80.129 C39.959,80.129 34.442,79.860 28.290,79.323 C28.045,79.274 27.557,79.250 26.825,79.250 L22.357,79.250 L22.357,31.1000 L28.436,31.1000 ZM83.890,31.1000 L90.311,31.1000 C90.948,34.867 91.278,37.894 91.278,41.091 C91.278,55.153 84.930,65.969 72.235,73.537 C80.340,67.337 84.393,56.594 84.393,41.311 C84.393,37.985 84.219,34.890 83.890,31.1000 ZM106.659,56.398 C106.659,61.721 108.001,66.555 110.687,70.900 C113.372,75.295 116.693,78.470 120.648,80.422 C114.642,80.030 109.735,78.005 105.926,74.343 C102.068,70.633 100.140,66.165 100.140,60.939 C100.140,54.836 103.021,49.416 108.783,44.680 C107.366,48.635 106.659,52.542 106.659,56.398 ZM111.786,55.813 C111.786,47.708 115.545,41.067 123.065,35.891 C122.099,34.529 121.258,33.241 120.493,31.1000 L127.620,31.1000 C129.510,34.410 131.920,37.340 134.857,40.798 C136.126,42.263 138.091,44.497 140.753,47.500 C143.414,50.502 146.001,53.359 148.517,56.069 C151.031,58.779 152.825,60.696 153.900,61.818 C159.613,67.824 164.495,72.146 168.548,74.782 C172.844,77.565 176.873,79.347 180.633,80.129 C178.924,80.470 177.385,80.642 176.019,80.642 C171.625,80.642 168.010,79.884 165.179,78.371 C162.250,76.809 159.271,74.685 156.244,71.999 C150.042,77.712 143.426,80.568 136.395,80.568 C129.217,80.568 123.333,77.908 118.744,72.585 C114.104,67.214 111.786,61.624 111.786,55.813 ZM137.933,74.636 C142.474,74.636 147.136,72.464 151.922,68.117 C150.066,66.262 147.772,63.894 145.038,61.013 C142.302,58.132 139.629,55.252 137.018,52.370 C134.405,49.490 132.195,46.950 130.389,44.753 C128.045,42.019 126.751,40.505 126.507,40.212 C121.087,44.509 118.377,49.514 118.377,55.227 C118.377,59.866 120.183,64.261 123.797,68.410 C127.361,72.561 132.074,74.636 137.933,74.636 ZM171.844,70.534 C169.256,68.728 166.168,66.103 162.579,62.661 C158.990,59.218 154.510,54.617 149.139,48.854 C142.935,42.166 137.953,36.550 134.187,31.1000 L142.216,31.1000 C142.126,32.051 142.052,32.104 141.961,32.155 C146.404,37.429 153.631,45.266 163.641,55.666 C168.475,49.953 170.892,45.608 170.892,42.629 C170.892,39.065 168.036,36.916 162.323,36.184 L162.323,34.865 C170.134,35.550 175.726,35.891 179.095,35.891 C179.828,35.891 181.463,35.843 184.002,35.744 C186.883,35.598 189.276,35.524 191.180,35.524 L191.180,36.770 C186.834,36.868 181.1000,40.505 176.678,47.683 L171.991,53.908 C171.844,54.055 171.575,54.373 171.185,54.860 L167.596,59.475 C176.336,68.069 183.172,72.365 188.104,72.365 C189.666,72.365 191.228,72.048 192.792,71.413 L193.524,72.438 C190.252,74.538 187.273,75.588 184.588,75.588 C181.024,75.588 176.775,73.903 171.844,70.534 ZM206.268,74.489 C208.416,71.902 209.491,66.506 209.491,58.303 L209.491,31.1000 L215.570,31.1000 L215.570,79.250 L213.153,79.250 C210.027,79.250 205.389,79.543 199.237,80.129 L199.237,78.811 C201.775,78.518 204.119,77.078 206.268,74.489 ZM226.849,31.1000 L226.849,40.651 C230.218,42.068 233.831,42.775 237.689,42.775 C243.889,42.775 248.529,41.067 251.605,37.648 C253.100,35.963 254.225,34.078 254.994,31.1000 L261.887,31.1000 C260.871,35.862 258.942,39.143 256.073,41.823 C251.629,46.071 245.843,48.195 238.714,48.195 C234.759,48.195 230.804,47.512 226.849,46.145 L226.849,59.182 C226.849,65.579 227.752,70.290 229.559,73.317 C231.317,76.443 234.221,78.274 238.275,78.811 L238.275,80.129 C236.224,79.836 233.685,79.616 230.658,79.470 L226.263,79.250 L220.917,79.250 L220.917,31.1000 L226.849,31.1000 ZM273.673,31.1000 C271.705,37.708 267.190,42.086 260.101,45.119 C263.837,41.280 266.233,36.899 267.346,31.1000 L273.673,31.1000 Z"/>
<path fill="url(#PSgrad_0)"
 d="M267.205,17.1000 C266.035,13.066 263.686,8.597 260.101,4.616 C267.375,7.547 271.946,12.011 273.829,17.1000 L267.205,17.1000 ZM255.228,17.1000 C254.464,15.573 253.267,13.400 251.605,11.501 C248.529,7.985 243.719,6.228 237.176,6.228 C233.562,6.228 230.926,6.789 229.266,7.912 C228.058,8.791 227.303,12.154 227.001,17.1000 L220.917,17.1000 L220.917,2.053 C222.136,2.053 223.089,2.029 223.773,1.979 C226.556,1.882 229.241,1.712 231.830,1.467 C233.538,1.272 235.418,1.174 237.469,1.174 C246.160,1.174 252.557,3.444 256.659,7.985 C259.212,10.877 260.957,14.217 261.902,17.1000 L255.228,17.1000 ZM209.353,17.1000 C209.073,13.609 208.362,10.343 207.220,8.205 C205.706,5.374 203.045,3.470 199.237,2.492 L199.237,1.174 C205.730,1.662 211.175,1.955 215.570,2.053 L215.570,17.1000 L209.353,17.1000 ZM146.988,17.1000 C147.227,17.042 147.381,16.056 147.381,15.017 C147.381,12.087 146.526,9.768 144.818,8.059 C143.157,6.399 140.960,5.568 138.226,5.568 C135.198,5.568 132.927,6.326 131.415,7.839 C129.900,9.353 129.144,10.915 129.144,12.526 C129.144,14.006 129.754,15.834 130.954,17.1000 L124.716,17.1000 C123.861,15.953 123.431,14.103 123.431,12.453 C123.431,9.036 124.847,6.130 127.679,3.737 C130.510,1.345 134.417,0.148 139.398,0.148 C144.280,0.148 148.358,1.419 151.629,3.957 C154.949,6.546 156.610,9.842 156.610,13.845 C156.610,15.258 156.343,16.639 155.907,17.1000 L146.988,17.1000 ZM116.293,17.1000 C116.573,15.993 117.183,13.996 118.158,12.014 C118.241,13.952 118.647,15.952 119.312,17.1000 L116.293,17.1000 ZM80.290,17.1000 C78.762,14.661 76.815,11.878 74.432,9.670 C78.113,12.092 81.183,14.874 83.668,17.1000 L80.290,17.1000 ZM66.712,17.1000 C66.129,17.136 65.506,16.312 64.837,15.529 C59.661,9.475 52.044,6.447 41.986,6.447 C36.760,6.447 32.635,7.253 29.608,8.864 C29.162,10.118 28.844,13.168 28.652,17.1000 L22.357,17.1000 L22.357,2.053 C29.095,1.906 33.807,1.736 36.493,1.540 C40.545,1.296 43.328,1.174 44.842,1.174 C52.167,1.174 58.416,2.858 63.592,6.228 C68.202,9.301 71.775,13.230 74.333,17.1000 L66.712,17.1000 ZM10.962,17.1000 C10.699,13.770 9.982,10.551 8.807,8.352 C7.293,5.568 4.632,3.616 0.824,2.492 L0.824,1.174 C7.171,1.662 12.616,1.955 17.157,2.053 L17.157,17.1000 L10.962,17.1000 ZM11.078,52.150 L11.078,31.1000 L17.157,31.1000 L17.157,79.250 C13.689,79.250 8.245,79.543 0.824,80.129 L0.824,78.811 C4.583,77.785 7.244,75.588 8.807,72.219 C10.320,68.996 11.078,62.307 11.078,52.150 ZM28.436,31.1000 L28.436,49.807 C28.436,60.500 29.143,68.313 30.560,73.244 C34.319,74.416 38.617,75.002 43.451,75.002 C52.484,75.002 59.588,72.146 64.764,66.433 C69.988,60.672 72.601,52.200 72.601,41.018 C72.601,37.798 72.371,34.796 71.922,31.1000 L78.490,31.1000 C78.806,34.582 78.973,37.338 78.973,40.285 C78.973,52.981 75.921,62.796 69.818,69.729 C63.666,76.662 55.340,80.129 44.842,80.129 C39.959,80.129 34.442,79.860 28.290,79.323 C28.045,79.274 27.557,79.250 26.825,79.250 L22.357,79.250 L22.357,31.1000 L28.436,31.1000 ZM83.890,31.1000 L90.311,31.1000 C90.948,34.867 91.278,37.894 91.278,41.091 C91.278,55.153 84.930,65.969 72.235,73.537 C80.340,67.337 84.393,56.594 84.393,41.311 C84.393,37.985 84.219,34.890 83.890,31.1000 ZM106.659,56.398 C106.659,61.721 108.001,66.555 110.687,70.900 C113.372,75.295 116.693,78.470 120.648,80.422 C114.642,80.030 109.735,78.005 105.926,74.343 C102.068,70.633 100.140,66.165 100.140,60.939 C100.140,54.836 103.021,49.416 108.783,44.680 C107.366,48.635 106.659,52.542 106.659,56.398 ZM111.786,55.813 C111.786,47.708 115.545,41.067 123.065,35.891 C122.099,34.529 121.258,33.241 120.493,31.1000 L127.620,31.1000 C129.510,34.410 131.920,37.340 134.857,40.798 C136.126,42.263 138.091,44.497 140.753,47.500 C143.414,50.502 146.001,53.359 148.517,56.069 C151.031,58.779 152.825,60.696 153.900,61.818 C159.613,67.824 164.495,72.146 168.548,74.782 C172.844,77.565 176.873,79.347 180.633,80.129 C178.924,80.470 177.385,80.642 176.019,80.642 C171.625,80.642 168.010,79.884 165.179,78.371 C162.250,76.809 159.271,74.685 156.244,71.999 C150.042,77.712 143.426,80.568 136.395,80.568 C129.217,80.568 123.333,77.908 118.744,72.585 C114.104,67.214 111.786,61.624 111.786,55.813 ZM137.933,74.636 C142.474,74.636 147.136,72.464 151.922,68.117 C150.066,66.262 147.772,63.894 145.038,61.013 C142.302,58.132 139.629,55.252 137.018,52.370 C134.405,49.490 132.195,46.950 130.389,44.753 C128.045,42.019 126.751,40.505 126.507,40.212 C121.087,44.509 118.377,49.514 118.377,55.227 C118.377,59.866 120.183,64.261 123.797,68.410 C127.361,72.561 132.074,74.636 137.933,74.636 ZM171.844,70.534 C169.256,68.728 166.168,66.103 162.579,62.661 C158.990,59.218 154.510,54.617 149.139,48.854 C142.935,42.166 137.953,36.550 134.187,31.1000 L142.216,31.1000 C142.126,32.051 142.052,32.104 141.961,32.155 C146.404,37.429 153.631,45.266 163.641,55.666 C168.475,49.953 170.892,45.608 170.892,42.629 C170.892,39.065 168.036,36.916 162.323,36.184 L162.323,34.865 C170.134,35.550 175.726,35.891 179.095,35.891 C179.828,35.891 181.463,35.843 184.002,35.744 C186.883,35.598 189.276,35.524 191.180,35.524 L191.180,36.770 C186.834,36.868 181.1000,40.505 176.678,47.683 L171.991,53.908 C171.844,54.055 171.575,54.373 171.185,54.860 L167.596,59.475 C176.336,68.069 183.172,72.365 188.104,72.365 C189.666,72.365 191.228,72.048 192.792,71.413 L193.524,72.438 C190.252,74.538 187.273,75.588 184.588,75.588 C181.024,75.588 176.775,73.903 171.844,70.534 ZM206.268,74.489 C208.416,71.902 209.491,66.506 209.491,58.303 L209.491,31.1000 L215.570,31.1000 L215.570,79.250 L213.153,79.250 C210.027,79.250 205.389,79.543 199.237,80.129 L199.237,78.811 C201.775,78.518 204.119,77.078 206.268,74.489 ZM226.849,31.1000 L226.849,40.651 C230.218,42.068 233.831,42.775 237.689,42.775 C243.889,42.775 248.529,41.067 251.605,37.648 C253.100,35.963 254.225,34.078 254.994,31.1000 L261.887,31.1000 C260.871,35.862 258.942,39.143 256.073,41.823 C251.629,46.071 245.843,48.195 238.714,48.195 C234.759,48.195 230.804,47.512 226.849,46.145 L226.849,59.182 C226.849,65.579 227.752,70.290 229.559,73.317 C231.317,76.443 234.221,78.274 238.275,78.811 L238.275,80.129 C236.224,79.836 233.685,79.616 230.658,79.470 L226.263,79.250 L220.917,79.250 L220.917,31.1000 L226.849,31.1000 ZM273.673,31.1000 C271.705,37.708 267.190,42.086 260.101,45.119 C263.837,41.280 266.233,36.899 267.346,31.1000 L273.673,31.1000 Z"/>
</svg>