<svg xmlns="http://www.w3.org/2000/svg" stroke="currentColor" fill="currentColor" stroke-width="0" height="16" width="16" style=""><rect id="backgroundrect" width="100%" height="100%" x="0" y="0" fill="none" stroke="none"/><g class="currentLayer" style=""><title>Layer 1</title><path fill-rule="evenodd" d="M0.1720002551823855,15.828000221654772 a0.5,0.5 0 0 0 0.7070000000000002,0 l4.096,-4.096 V14.500000221654773 a0.5,0.5 0 1 0 1,0 v-3.975 a0.5,0.5 0 0 0 -0.5,-0.5 H1.5000002551823854 a0.5,0.5 0 0 0 0,1 h2.7680000000000002 L0.1720002551823855,15.121000221654773 a0.5,0.5 0 0 0 0,0.7070000000000002 zM15.828000255182385,0.17200022165477277 a0.5,0.5 0 0 0 -0.7070000000000002,0 l-4.096,4.096 V1.5000002216547728 a0.5,0.5 0 1 0 -1,0 v3.975 a0.5,0.5 0 0 0 0.5,0.5 H14.500000255182385 a0.5,0.5 0 0 0 0,-1 h-2.7680000000000002 L15.828000255182385,0.879000221654773 a0.5,0.5 0 0 0 0,-0.7070000000000002 z" id="svg_1" class=""/><path fill-rule="evenodd" d="M0.17199925494194107,15.827999821186069 a0.5,0.5 0 0 0 0.7070000000000006,0 l4.096,-4.096 V14.499999821186066 a0.5,0.5 0 1 0 1,0 v-3.975 a0.5,0.5 0 0 0 -0.5,-0.5 H1.4999992549419403 a0.5,0.5 0 0 0 0,1 h2.7680000000000002 L0.17199925494194107,15.120999821186075 a0.5,0.5 0 0 0 0,0.7070000000000006 zM15.827999254941943,0.17199982118606272 a0.5,0.5 0 0 0 -0.7070000000000006,0 l-4.096,4.096 V1.4999998211860657 a0.5,0.5 0 1 0 -1,0 v3.975 a0.5,0.5 0 0 0 0.5,0.5 H14.499999254941944 a0.5,0.5 0 0 0 0,-1 h-2.7680000000000002 L15.827999254941943,0.8789998211860706 a0.5,0.5 0 0 0 0,-0.7070000000000006 z" class="" id="svg_2" transform="rotate(90 7.999999999999999,8.000000000000002) "/></g></svg>